<svg fill="#1f1f1f" version="1.1" id="Capa_1" xmlns="http://www.w3.org/2000/svg"
    xmlns:xlink="http://www.w3.org/1999/xlink" width="98px" height="98px"
    viewBox="-31.96 -31.96 383.55 383.55" xml:space="preserve" stroke="#1f1f1f"
    stroke-width="4.474876"><g id="SVGRepo_bgCarrier" stroke-width="0"><rect x="-31.96" y="-31.96" width="383.55" height="383.55" rx="38.355" fill="#ffffff" strokewidth="0"></rect></g><g id="SVGRepo_tracerCarrier" stroke-linecap="round" stroke-linejoin="round"></g><g id="SVGRepo_iconCarrier"> <g> <g> <path d="M318.765,9.888c-0.063-5.479-4.521-9.888-10-9.888H10.83c-5.523,0-10,4.478-10,10v55c0,5.522,4.477,10,10,10h22.596 c3.039,0,5.912-1.381,7.809-3.753L58.232,50h71.592v259.635c0,5.521,4.477,10,10,10h40c5.521,0,10-4.479,10-10V50.001h71.514 l17.08,21.263c1.898,2.363,4.769,3.737,7.799,3.737h22.588c2.66,0,5.212-1.061,7.089-2.946c1.877-1.885,2.926-4.441,2.911-7.102 L318.765,9.888z"></path> </g> </g> </g></svg>