<?xml version="1.0" standalone="no"?>
<!DOCTYPE svg PUBLIC "-//W3C//DTD SVG 20010904//EN" "http://www.w3.org/TR/2001/REC-SVG-20010904/DTD/svg10.dtd">
<svg version="1.0" xmlns="http://www.w3.org/2000/svg"
    width="1501.000000pt" height="1501.000000pt" viewBox="0 0 1501.000000 1501.000000"
    preserveAspectRatio="xMidYMid meet">

    <g transform="translate(0.000000,1501.000000) scale(0.100000,-0.100000)"
        fill="#000000" stroke="none">
        <path
            d="M7195 14789 c-1485 -80 -2903 -610 -4080 -1524 -302 -234 -702 -608
-963 -900 -967 -1082 -1595 -2436 -1786 -3856 -76 -564 -87 -1185 -30 -1739
206 -2020 1256 -3865 2899 -5093 930 -696 2015 -1157 3167 -1347 402 -66 741
-93 1178 -93 437 0 776 27 1178 93 1327 219 2536 784 3572 1671 181 156 572
542 721 714 624 718 1062 1462 1386 2350 177 487 320 1100 378 1620 31 284 36
367 42 705 11 689 -54 1265 -218 1911 -278 1099 -785 2072 -1543 2964 -154
181 -589 616 -778 777 -1435 1224 -3262 1848 -5123 1747z m655 -1339 c567 -27
1069 -120 1595 -295 274 -91 480 -176 750 -310 206 -101 497 -265 502 -282 1
-4 -776 -816 -1726 -1803 -951 -987 -1727 -1796 -1726 -1797 1 -2 1062 546
2359 1217 1297 671 2362 1218 2367 1215 17 -11 253 -311 338 -429 155 -218
367 -564 353 -577 -4 -3 -1203 -390 -2664 -860 -1462 -469 -2656 -854 -2655
-856 2 -1 1330 43 2951 98 1621 55 2950 98 2953 95 10 -10 63 -289 88 -461 25
-176 52 -442 44 -449 -2 -2 -1370 95 -3039 215 -1669 121 -3047 218 -3061 216
-15 -1 1313 -466 3015 -1056 1672 -580 3045 -1058 3050 -1063 12 -9 -9 -100
-75 -333 -98 -349 -207 -631 -379 -980 -311 -632 -675 -1135 -1181 -1630 -943
-923 -2144 -1495 -3454 -1645 -228 -26 -677 -46 -816 -36 l-105 8 -29 369
c-16 204 -32 374 -35 378 -8 13 -2851 1263 -2857 1257 -3 -3 -25 -231 -50
-508 -25 -277 -46 -505 -48 -506 -9 -10 -291 196 -475 347 -841 690 -1489
1623 -1839 2645 -502 1469 -408 3078 264 4472 727 1510 2081 2656 3684 3119
622 179 1265 255 1901 225z" />
        <path
            d="M5713 11210 c-44 -26 -63 -68 -63 -137 l-1 -58 -645 -630 -644 -629
2 -196 3 -195 118 -3 117 -3 0 -679 0 -679 -117 -3 -118 -3 0 -335 0 -335 183
-3 c136 -2 182 -6 182 -15 0 -6 -19 -221 -41 -476 -33 -364 -39 -465 -29 -471
43 -26 2362 -1041 2367 -1036 6 6 -140 1865 -153 1959 l-6 37 156 0 156 0 0
340 0 340 -115 0 -115 0 0 680 0 680 115 0 115 0 0 203 0 202 -640 625 -640
625 0 53 c0 69 -21 117 -62 142 -42 25 -84 25 -125 0z m857 -2530 l0 -680
-185 0 -185 0 0 305 c0 185 -4 325 -11 357 -37 177 -182 313 -359 338 -169 24
-353 -69 -428 -217 -48 -94 -52 -128 -52 -465 l0 -318 -190 0 -190 0 0 680 0
680 800 0 800 0 0 -680z" />
        <path
            d="M4616 5998 c-6 -36 -36 -384 -36 -409 0 -11 354 -172 1255 -569 691
-304 1259 -550 1262 -546 3 3 -2 113 -13 243 l-19 237 -1220 538 c-671 295
-1221 538 -1222 538 -1 0 -4 -15 -7 -32z" />
        <path
            d="M4546 5208 c-9 -56 -39 -419 -35 -422 2 -2 601 -267 1332 -588 l1327
-585 -1 41 c0 22 -8 133 -17 245 l-17 205 -1290 568 c-709 312 -1290 568
-1292 568 -1 0 -4 -15 -7 -32z" />
        <path
            d="M4476 4413 c-9 -65 -39 -414 -35 -417 11 -8 2795 -1232 2798 -1230 5
5 -32 472 -38 483 -5 7 -2704 1201 -2716 1201 -2 0 -6 -17 -9 -37z" />
    </g>
</svg>